<svg xmlns="http://www.w3.org/2000/svg" viewBox="0 0 1000 760" width="1000" height="760" font-family="-apple-system,BlinkMacSystemFont,'Segoe UI',Roboto,Helvetica,Arial,sans-serif">
  <defs>
    <linearGradient id="hero" x1="0" y1="0" x2="1" y2="1">
      <stop offset="0" stop-color="#1e293b"/>
      <stop offset="1" stop-color="#3b5bdb"/>
    </linearGradient>
  </defs>
  <rect x="0" y="0" width="1000" height="760" fill="#f5f7fa"/>
  <rect x="24" y="24" width="952" height="96" rx="16" fill="url(#hero)"/>
    <text x="48" y="66" font-size="24" font-weight="700" fill="#ffffff">Agent Skill Verification Report</text>
    <text x="48" y="94" font-size="13.5" fill="#cdd6f4">Skill codebase-understanding v1.0.0  ·  Model mock-flaky (unstable)  ·  Result FAILED</text>
  <text x="24" y="150" font-size="12" font-weight="600" letter-spacing="0.6" fill="#667085">SUMMARY</text>
  <rect x="24" y="162" width="227.5" height="88" rx="12" fill="#ffffff" stroke="#e4e7ec"/><text x="40" y="186" font-size="11" fill="#667085" letter-spacing="0.4">OVERALL RESULT</text><g>
    <rect x="40" y="196" width="66.4" height="22" rx="11" fill="#fdeceb"/>
    <text x="73.2" y="211" text-anchor="middle" font-size="12.5" font-weight="700" fill="#b42318">FAILED</text>
  </g><text x="40" y="238" font-size="11" fill="#667085">pass rate below threshold</text>
  <rect x="265.5" y="162" width="227.5" height="88" rx="12" fill="#ffffff" stroke="#e4e7ec"/><text x="281.5" y="186" font-size="11" fill="#667085" letter-spacing="0.4">PASS RATE</text><text x="281.5" y="217" font-size="24" font-weight="650" fill="#1a2233">54.3%</text><text x="281.5" y="238" font-size="11" fill="#667085">38/70 runs</text>
  <rect x="507" y="162" width="227.5" height="88" rx="12" fill="#ffffff" stroke="#e4e7ec"/><text x="523" y="186" font-size="11" fill="#667085" letter-spacing="0.4">SCHEMA VALID</text><text x="523" y="217" font-size="24" font-weight="650" fill="#1a2233">87.1%</text>
  <rect x="748.5" y="162" width="227.5" height="88" rx="12" fill="#ffffff" stroke="#e4e7ec"/><text x="764.5" y="186" font-size="11" fill="#667085" letter-spacing="0.4">CITATION VALID</text><text x="764.5" y="217" font-size="24" font-weight="650" fill="#1a2233">85.7%</text>
  <rect x="24" y="264" width="227.5" height="88" rx="12" fill="#ffffff" stroke="#e4e7ec"/><text x="40" y="288" font-size="11" fill="#667085" letter-spacing="0.4">UNSUPPORTED CLAIM RATE</text><text x="40" y="319" font-size="24" font-weight="650" fill="#1a2233">25.7%</text><text x="40" y="340" font-size="11" fill="#667085">lower is better</text>
  <rect x="265.5" y="264" width="227.5" height="88" rx="12" fill="#ffffff" stroke="#e4e7ec"/><text x="281.5" y="288" font-size="11" fill="#667085" letter-spacing="0.4">TOOL ERROR RATE</text><text x="281.5" y="319" font-size="24" font-weight="650" fill="#1a2233">7.1%</text><text x="281.5" y="340" font-size="11" fill="#667085">lower is better</text>
  <rect x="507" y="264" width="227.5" height="88" rx="12" fill="#ffffff" stroke="#e4e7ec"/><text x="523" y="288" font-size="11" fill="#667085" letter-spacing="0.4">P95 LATENCY</text><text x="523" y="319" font-size="24" font-weight="650" fill="#1a2233">319 ms</text><text x="523" y="340" font-size="11" fill="#667085">estimated/demo</text>
  <rect x="748.5" y="264" width="227.5" height="88" rx="12" fill="#ffffff" stroke="#e4e7ec"/><text x="764.5" y="288" font-size="11" fill="#667085" letter-spacing="0.4">TOTAL RUNS</text><text x="764.5" y="319" font-size="24" font-weight="650" fill="#1a2233">70</text><text x="764.5" y="340" font-size="11" fill="#667085">7 test cases</text>
  <text x="24" y="386" font-size="12" font-weight="600" letter-spacing="0.6" fill="#667085">FAILURE BREAKDOWN</text>
  <rect x="24" y="398" width="952" height="302" rx="12" fill="#ffffff" stroke="#e4e7ec"/><rect x="24" y="398" width="952" height="32" rx="12" fill="#fafbfc"/><rect x="24" y="414" width="952" height="16" fill="#fafbfc"/><text x="40" y="419" font-size="11" font-weight="600" fill="#667085">FAILURE REASON</text><text x="960" y="419" text-anchor="end" font-size="11" font-weight="600" fill="#667085">COUNT</text><text x="40" y="450" font-size="12" font-family="ui-monospace,SFMono-Regular,Menlo,Consolas,monospace" fill="#1a2233">unsupported_claim: answered_claim_without_citation</text><text x="960" y="450" text-anchor="end" font-size="12.5" font-weight="600" fill="#1a2233">13</text><line x1="24" y1="460" x2="976" y2="460" stroke="#e4e7ec"/><text x="40" y="480" font-size="12" font-family="ui-monospace,SFMono-Regular,Menlo,Consolas,monospace" fill="#1a2233">citation: required_symbol_not_cited</text><text x="960" y="480" text-anchor="end" font-size="12.5" font-weight="600" fill="#1a2233">10</text><line x1="24" y1="490" x2="976" y2="490" stroke="#e4e7ec"/><text x="40" y="510" font-size="12" font-family="ui-monospace,SFMono-Regular,Menlo,Consolas,monospace" fill="#1a2233">schema: status</text><text x="960" y="510" text-anchor="end" font-size="12.5" font-weight="600" fill="#1a2233">9</text><line x1="24" y1="520" x2="976" y2="520" stroke="#e4e7ec"/><text x="40" y="540" font-size="12" font-family="ui-monospace,SFMono-Regular,Menlo,Consolas,monospace" fill="#1a2233">citation: citation_does_not_support_claim</text><text x="960" y="540" text-anchor="end" font-size="12.5" font-weight="600" fill="#1a2233">5</text><line x1="24" y1="550" x2="976" y2="550" stroke="#e4e7ec"/><text x="40" y="570" font-size="12" font-family="ui-monospace,SFMono-Regular,Menlo,Consolas,monospace" fill="#1a2233">citation: expected_citation_file_not_cited</text><text x="960" y="570" text-anchor="end" font-size="12.5" font-weight="600" fill="#1a2233">5</text><line x1="24" y1="580" x2="976" y2="580" stroke="#e4e7ec"/><text x="40" y="600" font-size="12" font-family="ui-monospace,SFMono-Regular,Menlo,Consolas,monospace" fill="#1a2233">tool_call: tool_order_violation</text><text x="960" y="600" text-anchor="end" font-size="12.5" font-weight="600" fill="#1a2233">5</text><line x1="24" y1="610" x2="976" y2="610" stroke="#e4e7ec"/><text x="40" y="630" font-size="12" font-family="ui-monospace,SFMono-Regular,Menlo,Consolas,monospace" fill="#1a2233">unsupported_claim: expected_answer_but_got_maybe</text><text x="960" y="630" text-anchor="end" font-size="12.5" font-weight="600" fill="#1a2233">5</text><line x1="24" y1="640" x2="976" y2="640" stroke="#e4e7ec"/><text x="40" y="660" font-size="12" font-family="ui-monospace,SFMono-Regular,Menlo,Consolas,monospace" fill="#1a2233">unsupported_claim: invented_answer_when_insufficient_expected</text><text x="960" y="660" text-anchor="end" font-size="12.5" font-weight="600" fill="#1a2233">3</text><line x1="24" y1="670" x2="976" y2="670" stroke="#e4e7ec"/><text x="40" y="690" font-size="12" font-family="ui-monospace,SFMono-Regular,Menlo,Consolas,monospace" fill="#1a2233">unsupported_claim: forbidden_claim_present</text><text x="960" y="690" text-anchor="end" font-size="12.5" font-weight="600" fill="#1a2233">1</text>
</svg>
